<?xml version="1.0" standalone="no"?>
<!DOCTYPE svg PUBLIC "-//W3C//DTD SVG 20010904//EN"
 "http://www.w3.org/TR/2001/REC-SVG-20010904/DTD/svg10.dtd">
<svg version="1.0" xmlns="http://www.w3.org/2000/svg"
 width="450.000000pt" height="450.000000pt" viewBox="0 0 450.000000 450.000000"
 preserveAspectRatio="xMidYMid meet">
<metadata>
Created by potrace 1.11, written by Peter Selinger 2001-2013
</metadata>
<g transform="translate(0.000000,450.000000) scale(0.100000,-0.100000)"
fill="#000000" stroke="none">
<path d="M2070 4150 c-112 -15 -141 -28 -188 -81 -25 -28 -48 -158 -73 -414
-14 -134 1 -108 -129 -230 -50 -47 -100 -130 -100 -167 0 -9 -4 -19 -10 -23
-5 -3 -7 -13 -4 -23 5 -13 4 -14 -4 -4 -5 8 -12 13 -16 13 -3 -1 -7 -1 -8 0
-2 0 -25 1 -53 2 -36 2 -49 6 -47 15 1 8 -2 11 -7 8 -5 -4 -12 -2 -15 3 -10
16 -139 -2 -172 -24 -13 -8 -27 -15 -31 -15 -4 0 -2 4 6 9 9 6 5 9 -13 9 -15
0 -29 -5 -32 -9 -3 -5 -10 -7 -15 -4 -5 4 -9 1 -9 -5 0 -6 -4 -9 -9 -5 -5 3
-12 1 -16 -5 -4 -6 -10 -8 -15 -5 -4 3 -25 -2 -45 -11 -25 -10 -34 -11 -29 -3
4 8 3 9 -4 5 -20 -12 -53 -16 -46 -5 10 17 -51 5 -69 -13 -13 -12 -14 -18 -4
-22 6 -4 2 -4 -10 -2 -13 2 -23 -1 -23 -7 0 -6 -3 -8 -6 -4 -9 9 -65 -14 -58
-24 3 -5 2 -9 -3 -10 -4 0 -17 -3 -28 -6 -43 -12 -225 -12 -225 -1 0 7 -7 3
-15 -8 -11 -14 -14 -15 -9 -2 4 12 1 16 -13 13 -10 -2 -19 -4 -20 -5 -2 -2 -7
-3 -12 -4 -5 0 -13 -5 -18 -10 -5 -5 -2 -6 6 -1 9 5 12 4 7 -3 -4 -7 -16 -12
-27 -12 -11 0 -22 -6 -25 -14 -3 -8 -15 -16 -26 -19 -11 -3 -17 -10 -13 -17 4
-6 1 -9 -7 -8 -7 2 -12 -2 -11 -8 1 -6 -3 -11 -10 -11 -7 0 -21 -4 -32 -8
l-20 -8 20 17 c20 17 20 17 -3 6 -12 -6 -20 -15 -17 -21 4 -5 0 -9 -7 -9 -9 0
-9 -3 2 -10 13 -9 8 -14 -12 -11 -3 0 -11 -13 -17 -29 -8 -24 -7 -32 7 -41 15
-9 15 -10 -2 -5 -12 4 -17 2 -13 -7 3 -7 -3 -13 -14 -13 -12 0 -15 4 -8 12 7
8 1 10 -21 8 -19 -2 -29 0 -25 6 10 16 -1 11 -16 -7 -8 -9 -9 -14 -3 -10 6 3
11 0 11 -8 0 -13 -3 -13 -16 -2 -31 26 -79 9 -85 -29 -2 -12 -10 -18 -21 -16
-9 2 -14 -1 -11 -7 3 -5 -1 -17 -10 -25 -8 -9 -11 -16 -5 -16 5 0 8 -12 6 -27
-2 -19 -8 -28 -19 -27 -9 1 -13 -2 -10 -7 3 -5 1 -9 -4 -9 -5 0 -9 -7 -9 -15
0 -8 4 -12 9 -9 4 3 8 -5 8 -18 0 -19 -2 -20 -10 -8 -8 12 -10 11 -7 -5 1 -11
7 -26 11 -34 6 -9 5 -12 -1 -8 -6 4 -13 -3 -17 -16 -3 -12 -6 -595 -6 -1294
l0 -1273 2250 0 2250 0 0 1184 c0 651 -3 1192 -6 1201 -5 13 -8 14 -15 3 -6
-9 -9 -6 -10 12 0 23 -1 23 -9 5 -8 -19 -9 -19 -9 -1 -1 17 -3 18 -13 5 -7 -8
-12 -12 -11 -10 4 6 -51 46 -59 43 -5 -1 -8 2 -8 7 0 6 -9 8 -21 6 -18 -4 -19
-2 -7 12 12 15 11 15 -8 5 -18 -9 -25 -8 -39 8 -10 11 -21 17 -25 15 -5 -3 -6
4 -3 15 3 12 0 20 -6 20 -7 0 -10 -4 -7 -8 3 -5 -1 -9 -9 -9 -8 0 -12 4 -9 8
2 4 0 10 -6 14 -5 3 -10 0 -10 -7 0 -8 -3 -9 -8 -3 -4 6 -16 17 -27 25 -19 14
-19 14 -5 -6 10 -13 7 -12 -7 4 -13 13 -23 20 -23 16 0 -4 -7 1 -16 12 -8 10
-13 14 -10 7 4 -7 -1 -10 -11 -9 -9 2 -19 9 -22 17 -7 22 -45 49 -55 39 -14
-13 -49 9 -42 26 3 8 2 12 -3 9 -6 -3 -14 3 -20 12 -6 10 -11 13 -11 8 0 -6 5
-16 11 -22 8 -8 8 -13 0 -18 -7 -3 -10 -1 -9 6 2 7 -3 13 -10 14 -14 0 -33 25
-27 35 2 4 -2 7 -10 7 -8 0 -11 -5 -8 -11 4 -6 -4 -2 -17 9 -15 13 -21 15 -16
5 4 -8 0 -6 -8 4 -19 23 -33 27 -100 30 -38 2 -51 7 -57 22 -4 10 -8 15 -8 10
-1 -5 -9 -2 -18 5 -9 8 -14 9 -10 3 3 -6 0 -11 -7 -11 -8 0 -12 5 -10 12 3 6
-7 12 -21 13 -56 5 -65 7 -65 15 0 4 -4 5 -10 2 -5 -3 -10 0 -10 7 0 11 -2 10
-9 0 -6 -11 -10 -10 -15 4 -3 9 -9 14 -13 11 -3 -3 -19 1 -35 9 -16 9 -36 13
-44 10 -7 -3 -18 3 -23 12 -6 9 -11 13 -11 8 0 -6 -7 -1 -16 10 -8 10 -12 12
-8 4 7 -13 5 -13 -9 -1 -9 7 -17 10 -17 5 0 -5 -5 -2 -10 6 -9 13 -10 13 -10
0 0 -13 -2 -13 -9 -1 -10 15 -26 21 -73 25 -15 1 -31 6 -35 11 -5 4 -1 4 7 0
13 -8 13 -6 1 8 -7 9 -17 14 -22 11 -5 -3 -18 5 -29 18 -18 21 -19 21 -14 3 5
-20 5 -20 -8 0 -7 12 -21 21 -30 22 -36 1 -39 3 -32 16 5 7 0 6 -11 -3 -12
-10 -16 -10 -11 -2 6 10 1 11 -20 6 -23 -6 -26 -4 -20 11 5 15 4 16 -9 5 -8
-7 -12 -17 -8 -24 3 -6 -1 -4 -10 4 -10 10 -19 51 -27 124 -13 128 -37 197
-87 250 -30 32 -39 37 -54 28 -22 -14 -45 8 -27 26 10 10 -3 17 -54 28 -5 1
-9 2 -10 4 -4 3 -26 7 -98 22 -37 7 -55 14 -42 16 12 2 22 7 22 12 0 14 -73
24 -192 24 -79 1 -121 5 -129 14 -11 10 -10 12 1 13 8 1 18 1 22 0 3 0 2 14
-3 31 -8 30 -21 162 -36 373 -3 50 -9 100 -14 111 -8 24 -92 75 -118 73 -9 -1
-41 -5 -71 -9z m191 -533 c-10 -9 -11 -8 -5 6 3 10 9 15 12 12 3 -3 0 -11 -7
-18z m128 -247 c200 -18 370 -62 425 -110 72 -64 85 -192 91 -935 4 -483 2
-550 -18 -538 -7 4 -8 0 -3 -13 4 -10 4 -15 0 -11 -4 4 -13 -1 -21 -11 -8 -9
-12 -11 -8 -4 3 6 3 12 -2 12 -4 0 -9 120 -10 268 -2 427 -18 898 -35 1017
-14 106 -36 136 -115 158 -234 64 -636 68 -863 7 -22 -6 -42 -20 -53 -39 -21
-36 -21 -45 -2 -38 11 5 12 1 6 -16 -16 -42 -21 -115 -36 -512 -8 -220 -17
-443 -20 -495 -3 -52 -6 -149 -7 -215 -1 -137 10 -172 64 -198 83 -38 544 -58
802 -34 146 14 160 17 185 41 15 15 30 23 34 19 4 -3 7 -1 7 6 0 7 4 10 9 6
15 -9 -8 -62 -35 -84 -17 -14 -62 -23 -178 -36 -260 -30 -794 -5 -862 40 -13
8 -32 30 -41 48 -17 29 -18 64 -15 414 2 265 0 383 -8 388 -6 3 -10 3 -9 -2 1
-4 1 -28 0 -52 -2 -66 -13 -41 -13 28 0 34 -4 58 -9 55 -5 -3 -7 -24 -4 -47
l5 -42 -11 40 c-22 83 9 598 43 703 32 102 100 137 320 166 203 28 238 29 387
16z m-1189 -160 c0 -5 -2 -10 -4 -10 -3 0 -8 5 -11 10 -3 6 -1 10 4 10 6 0 11
-4 11 -10z m927 -107 c-13 -3 -17 -11 -14 -24 6 -22 -8 -26 -16 -5 -7 17 12
36 33 35 11 -1 10 -3 -3 -6z m76 -23 c4 -16 0 -20 -19 -20 -27 0 -28 3 -13 31
12 22 24 18 32 -11z m63 4 c1 -17 -4 -21 -22 -20 -18 1 -24 7 -24 24 0 19 5
23 23 20 14 -2 22 -10 23 -24z m60 13 c7 10 14 14 14 8 1 -5 3 -17 5 -26 2
-13 -5 -16 -31 -15 -33 1 -34 2 -24 46 0 3 5 -3 11 -13 10 -18 11 -18 25 0z
m41 -24 c-3 -10 -5 -4 -5 12 0 17 2 24 5 18 2 -7 2 -21 0 -30z m63 15 c0 7 4
12 8 12 4 0 8 -9 8 -20 0 -23 -7 -25 -24 -8 -10 10 -15 10 -22 -2 -7 -11 -10
-8 -10 14 0 28 0 29 20 11 11 -10 20 -13 20 -7z m-280 -18 c0 -5 -5 -10 -11
-10 -5 0 -7 5 -4 10 3 6 8 10 11 10 2 0 4 -4 4 -10z m881 -120 c44 -12 84 -55
100 -108 14 -47 5 -108 -17 -116 -23 -9 -61 38 -68 85 -4 27 -17 49 -41 70
-21 19 -35 42 -35 56 0 26 9 27 61 13z m-1056 -11 c10 -15 -15 -69 -31 -69
-21 0 -23 13 -9 48 14 33 29 40 40 21z m610 -19 c15 -30 13 -50 -5 -50 -13 0
-42 59 -35 70 11 18 24 11 40 -20z m609 15 c-4 -8 -11 -12 -16 -9 -6 4 -5 10
3 15 19 12 19 11 13 -6z m-1274 -2 c0 -5 -7 -17 -15 -27 -12 -16 -18 -17 -27
-8 -9 9 -8 12 4 12 9 0 18 7 22 15 6 16 16 21 16 8z m300 -12 c0 -24 -49 -35
-69 -16 -13 12 -11 16 10 24 39 16 59 13 59 -8z m126 5 c25 -19 8 -36 -28 -29
-19 4 -28 12 -28 24 0 23 28 25 56 5z m107 -13 c-13 -2 -33 -2 -45 0 -13 2 -3
4 22 4 25 0 35 -2 23 -4z m-903 -13 c11 -7 12 -13 3 -32 -6 -13 -14 -41 -18
-63 -4 -22 -13 -59 -21 -83 -8 -23 -14 -57 -14 -75 0 -18 -7 -42 -15 -53 -8
-10 -15 -30 -15 -43 0 -13 -8 -31 -19 -40 -17 -15 -30 -39 -77 -146 -12 -28
-32 -52 -69 -83 -16 -13 -30 -13 -66 2 -36 15 -27 -23 16 -67 52 -54 73 -89
56 -95 -6 -2 -11 -13 -11 -23 0 -11 -4 -17 -10 -14 -5 3 -10 -3 -10 -15 0 -12
-4 -19 -10 -15 -5 3 -5 -7 1 -25 6 -16 15 -33 20 -36 5 -3 7 -9 4 -14 -3 -5
-8 -42 -11 -84 -3 -42 -11 -88 -19 -103 -8 -16 -15 -43 -15 -61 0 -30 1 -32
16 -18 24 25 40 19 65 -21 13 -21 23 -41 23 -44 1 -10 56 -85 56 -77 0 4 -9
23 -20 42 -18 32 -20 62 -5 85 3 5 1 12 -5 16 -6 4 -7 11 -4 17 5 7 1 9 -9 5
-23 -9 -21 0 2 13 14 7 22 7 27 -2 5 -7 3 -8 -6 -3 -9 5 -11 4 -6 -4 4 -6 11
-9 16 -6 8 5 25 -24 21 -38 -1 -5 3 -6 9 -2 5 3 10 13 10 21 0 8 -4 12 -10 9
-5 -3 -10 3 -10 15 0 12 -4 19 -9 16 -5 -3 -14 1 -21 9 -10 12 -10 15 3 15 24
0 60 -56 52 -80 -4 -12 -1 -28 7 -37 9 -12 9 -15 1 -9 -9 5 -13 -2 -13 -23 0
-17 4 -31 9 -31 5 0 8 -8 6 -17 -2 -10 -4 -24 -4 -31 -1 -8 -8 -11 -20 -7 -18
5 -18 3 3 -47 12 -29 30 -68 40 -87 13 -24 19 -62 21 -125 2 -50 6 -107 10
-126 4 -28 13 -185 18 -320 2 -67 -3 -101 -15 -94 -8 5 -8 1 2 -12 8 -10 10
-16 6 -12 -28 23 -49 -59 -26 -101 11 -22 -3 -77 -19 -73 -6 1 -17 -9 -23 -23
-6 -14 -18 -25 -25 -25 -8 0 -11 -5 -7 -12 5 -8 0 -9 -14 -6 -14 4 -20 2 -16
-4 4 -6 -1 -8 -11 -6 -10 1 -20 9 -23 17 -3 9 0 11 8 6 9 -5 11 -4 6 4 -4 6
-16 9 -26 6 -17 -5 -67 18 -157 71 -17 11 -64 39 -105 63 -40 24 -111 64 -158
89 -47 25 -89 51 -93 59 -4 7 -15 13 -22 13 -8 0 -15 5 -15 11 0 7 -16 27 -35
46 -19 19 -35 38 -35 43 0 6 -5 10 -10 10 -17 0 -53 43 -110 130 -29 43 -50
85 -48 92 3 7 -1 18 -9 23 -20 15 -19 87 1 235 38 271 45 291 157 456 37 56
107 178 154 270 47 93 90 173 95 178 6 6 10 19 10 29 0 45 95 158 176 210 22
13 80 61 129 105 77 68 97 93 134 164 23 45 50 89 59 96 19 14 71 16 92 2z
m1145 -52 c2 -7 6 -147 7 -311 l3 -297 -437 0 c-343 0 -438 3 -439 13 -2 35 2
215 7 394 6 174 9 203 23 205 9 2 199 5 424 7 329 2 408 0 412 -11z m284 -127
c1 -89 -5 -73 -12 29 -3 48 -1 74 3 60 4 -14 8 -54 9 -89z m20 17 c-1 -97 -6
-93 -12 10 -2 39 0 72 4 72 5 0 9 -37 8 -82z m-8 -108 c5 19 7 11 8 -30 1 -30
4 -65 7 -77 4 -14 2 -23 -5 -23 -7 0 -10 4 -6 9 3 5 1 12 -3 15 -8 5 -7 -53 2
-96 2 -10 -2 -22 -9 -28 -11 -9 -13 14 -13 122 0 73 3 122 6 108 l5 -25 8 25z
m120 -160 c39 -20 56 -41 134 -162 38 -59 40 -65 40 -141 0 -84 -11 -105 -34
-65 -7 13 -47 49 -90 81 -42 31 -88 75 -101 97 -14 22 -28 40 -32 40 -11 0 -5
43 9 65 7 11 13 36 13 56 0 32 6 49 17 49 2 0 22 -9 44 -20z m-104 -22 c-3 -8
-6 -5 -6 6 -1 11 2 17 5 13 3 -3 4 -12 1 -19z m1384 -25 c12 -16 12 -17 -2 -6
-9 7 -20 9 -24 5 -5 -4 -5 -1 -1 6 9 16 11 15 27 -5z m-2524 -240 c-3 -10 -5
-4 -5 12 0 17 2 24 5 18 2 -7 2 -21 0 -30z m100 31 c-3 -3 -12 -4 -19 -1 -8 3
-5 6 6 6 11 1 17 -2 13 -5z m83 -19 c0 -14 -3 -25 -7 -25 -5 0 -8 11 -8 25 0
14 3 25 8 25 4 0 7 -11 7 -25z m86 -12 c-11 -11 -19 6 -11 24 8 17 8 17 12 0
3 -10 2 -21 -1 -24z m94 0 c0 -7 -5 -13 -11 -13 -5 0 -7 5 -4 10 3 6 2 10 -4
10 -6 0 -8 7 -4 16 5 13 7 13 14 2 5 -7 9 -19 9 -25z m88 12 c2 -25 -11 -34
-22 -16 -7 11 3 41 13 41 4 0 8 -11 9 -25z m91 18 c0 -5 -5 -17 -10 -28 -9
-19 -9 -19 -5 2 2 12 -1 24 -8 27 -6 2 -3 5 7 5 9 1 17 -2 16 -6z m89 -21 c2
-15 -2 -22 -12 -22 -11 0 -16 9 -16 26 0 31 23 28 28 -4z m87 3 c0 -10 -7 -20
-15 -22 -13 -4 -13 -3 0 6 10 7 11 11 3 11 -7 0 -13 7 -13 16 0 9 6 14 13 12
6 -3 12 -13 12 -23z m90 0 c0 -10 -6 -20 -12 -22 -8 -3 -13 5 -13 22 0 17 5
25 13 23 6 -3 12 -13 12 -23z m-716 -24 c-15 -5 -22 6 -14 19 6 9 10 9 16 -1
5 -8 4 -15 -2 -18z m-443 -92 c-8 -16 -13 -35 -10 -42 4 -11 -101 -67 -125
-67 -5 0 -4 18 1 41 8 31 25 52 77 96 66 56 66 56 69 30 2 -15 -3 -41 -12 -58z
m446 65 c17 -4 28 -13 31 -27 4 -18 5 -17 6 6 1 28 14 33 58 21 14 -4 23 -16
26 -33 4 -25 4 -24 6 4 l1 31 108 -3 c59 -1 198 -3 310 -3 l203 0 -3 -42 -3
-43 -46 1 -46 1 5 -50 5 -49 -47 3 -46 4 0 -48 0 -48 -87 3 -88 3 0 45 1 45
-51 0 -50 1 3 -47 4 -48 -179 2 -178 2 1 23 c2 28 -39 72 -66 72 -18 0 -20 7
-20 90 l0 91 58 -1 c31 -1 69 -4 84 -6z m1181 -210 c71 -24 133 -84 153 -149
17 -52 17 -60 0 -157 -18 -105 -49 -213 -68 -235 -15 -18 -35 -16 -55 6 -93
100 -129 131 -150 131 -13 0 -23 4 -23 8 0 5 -11 14 -25 20 -14 6 -25 18 -25
25 0 7 -11 24 -25 37 -53 50 -22 123 101 238 61 58 75 75 63 83 -22 14 2 11
54 -7z m-1728 -4 c16 -7 13 -9 -17 -9 -21 -1 -38 4 -38 9 0 12 27 12 55 0z
m905 -16 c0 -31 -23 -28 -28 4 -2 15 2 22 12 22 11 0 16 -9 16 -26z m-895 -46
c14 -6 25 -15 25 -19 0 -9 -21 -5 -75 15 l-40 15 32 1 c18 0 44 -5 58 -12z
m472 -14 c4 -10 -1 -22 -10 -29 -10 -7 -17 -17 -17 -24 0 -6 -8 -11 -18 -11
-12 0 -18 7 -17 23 0 46 48 77 62 41z m633 -35 c0 -25 -4 -29 -29 -29 -16 0
-35 7 -42 16 -11 14 -10 19 9 34 31 26 62 15 62 -21z m-558 1 c-4 -29 -10 -30
-39 -8 -15 12 4 37 28 38 12 0 14 -7 11 -30z m75 13 c23 -16 24 -17 7 -24 -33
-13 -41 -10 -41 16 0 30 0 30 34 8z m333 12 c0 -2 -5 -16 -12 -30 -12 -26 -43
-31 -43 -7 0 6 4 11 8 10 5 -2 13 5 18 15 9 15 29 24 29 12z m230 -19 c0 -28
-33 -41 -51 -20 -14 18 1 39 30 41 16 1 21 -4 21 -21z m100 -11 c0 -22 -4 -25
-40 -25 -36 0 -40 3 -40 25 0 23 4 25 40 25 36 0 40 -2 40 -25z m-490 3 c0 -4
-25 -8 -56 -8 -30 0 -53 3 -51 8 7 10 107 10 107 0z m161 -464 c-21 -16 -42 4
-28 27 9 15 11 15 26 0 15 -14 15 -17 2 -27z m-198 9 c-7 -2 -21 -2 -30 0 -10
3 -4 5 12 5 17 0 24 -2 18 -5z m896 -54 c111 -63 169 -143 178 -249 7 -73 -28
-192 -67 -232 -15 -15 -25 -30 -22 -33 4 -3 -1 -3 -11 1 -9 3 -17 2 -17 -4 0
-5 -11 -13 -25 -16 -14 -4 -25 -11 -25 -16 0 -6 -6 -10 -12 -10 -7 0 -24 -9
-38 -20 -28 -22 -75 -26 -86 -8 -4 7 -9 25 -11 41 -4 41 -21 67 -38 61 -8 -4
-18 1 -21 10 -3 9 -10 14 -14 11 -5 -3 -11 -1 -15 4 -3 6 -25 20 -50 32 -24
12 -42 26 -39 30 2 4 -5 17 -17 28 -17 16 -20 27 -15 52 8 41 66 120 111 150
19 13 35 27 35 32 0 4 6 7 14 7 7 0 38 11 67 24 60 26 86 36 96 35 3 -1 10 7
15 16 12 21 -1 37 -46 55 -19 7 -33 17 -30 22 9 14 24 9 83 -23z m-698 -46
c53 -24 89 -55 115 -103 10 -19 24 -42 30 -50 12 -16 12 -43 -1 -72 -12 -29
-23 -21 -35 23 -8 27 -28 58 -60 90 -80 80 -188 97 -289 45 -36 -19 -90 -80
-107 -123 -8 -18 -18 -33 -23 -33 -5 0 -8 -8 -6 -17 1 -10 0 -12 -2 -5 -3 6
-9 12 -14 12 -5 0 -9 17 -9 38 1 41 55 130 102 165 77 57 208 70 299 30z m252
-110 c-7 -2 -19 -2 -25 0 -7 3 -2 5 12 5 14 0 19 -2 13 -5z m-720 -29 c-4 -12
-8 -13 -14 -3 -9 15 -2 32 11 24 5 -3 6 -13 3 -21z m720 9 c-7 -2 -19 -2 -25
0 -7 3 -2 5 12 5 14 0 19 -2 13 -5z m0 -20 c-7 -2 -19 -2 -25 0 -7 3 -2 5 12
5 14 0 19 -2 13 -5z m-497 -150 c-3 -3 -13 -3 -22 1 -16 6 -15 8 2 21 16 12
19 12 22 -1 2 -9 1 -18 -2 -21z m273 14 c12 -15 5 -27 -15 -27 -7 0 -12 9 -11
20 2 23 10 25 26 7z m-129 -143 c0 -3 -5 -15 -11 -26 -11 -21 -12 -21 -25 -3
-20 27 -17 35 11 35 14 0 25 -3 25 -6z m-367 -31 c-3 -7 -9 -13 -13 -13 -4 0
-10 6 -13 13 -3 7 3 13 13 13 10 0 16 -6 13 -13z"/>
<path d="M1642 2600 c0 -14 2 -19 5 -12 2 6 2 18 0 25 -3 6 -5 1 -5 -13z"/>
<path d="M2238 3093 c7 -3 16 -2 19 1 4 3 -2 6 -13 5 -11 0 -14 -3 -6 -6z"/>
<path d="M2565 2910 c-3 -5 -1 -10 4 -10 6 0 11 5 11 10 0 6 -2 10 -4 10 -3 0
-8 -4 -11 -10z"/>
<path d="M1860 2804 c0 -23 2 -24 15 -10 8 8 15 19 15 25 0 6 -7 11 -15 11 -9
0 -15 -10 -15 -26z"/>
<path d="M1953 2815 c1 -11 9 -20 17 -20 8 0 20 -4 26 -7 6 -4 11 -1 11 6 0 7
-10 13 -21 12 -12 -1 -24 6 -28 14 -6 11 -7 10 -5 -5z"/>
<path d="M2335 2820 c-3 -5 -1 -10 4 -10 6 0 11 5 11 10 0 6 -2 10 -4 10 -3 0
-8 -4 -11 -10z"/>
<path d="M2022 2800 c0 -14 2 -19 5 -12 2 6 2 18 0 25 -3 6 -5 1 -5 -13z"/>
<path d="M2152 2800 c0 -14 2 -19 5 -12 2 6 2 18 0 25 -3 6 -5 1 -5 -13z"/>
<path d="M2500 2803 c0 -15 -2 -16 -10 -3 -8 13 -10 12 -10 -2 0 -10 7 -18 15
-18 8 0 15 9 15 20 0 11 -2 20 -5 20 -3 0 -5 -8 -5 -17z"/>
<path d="M2642 2800 c0 -14 2 -19 5 -12 2 6 2 18 0 25 -3 6 -5 1 -5 -13z"/>
<path d="M1900 2795 c0 -8 2 -15 4 -15 2 0 6 7 10 15 3 8 1 15 -4 15 -6 0 -10
-7 -10 -15z"/>
<path d="M2090 2795 c0 -8 2 -15 4 -15 2 0 6 7 10 15 3 8 1 15 -4 15 -6 0 -10
-7 -10 -15z"/>
<path d="M2126 2795 c-3 -8 -1 -15 4 -15 6 0 10 7 10 15 0 8 -2 15 -4 15 -2 0
-6 -7 -10 -15z"/>
<path d="M2200 2794 c0 -8 5 -12 10 -9 6 3 10 10 10 16 0 5 -4 9 -10 9 -5 0
-10 -7 -10 -16z"/>
<path d="M2231 2794 c0 -11 3 -14 6 -6 3 7 2 16 -1 19 -3 4 -6 -2 -5 -13z"/>
<path d="M2271 2794 c0 -11 3 -14 6 -6 3 7 2 16 -1 19 -3 4 -6 -2 -5 -13z"/>
<path d="M2291 2794 c0 -11 3 -14 6 -6 3 7 2 16 -1 19 -3 4 -6 -2 -5 -13z"/>
<path d="M2357 2803 c-13 -12 -7 -23 13 -23 11 0 20 7 20 15 0 15 -21 21 -33
8z"/>
<path d="M2426 2801 c-4 -7 -5 -15 -2 -18 9 -9 19 4 14 18 -4 11 -6 11 -12 0z"/>
<path d="M2537 2795 c-4 -8 -2 -17 3 -20 6 -4 10 3 10 14 0 25 -6 27 -13 6z"/>
<path d="M2580 2795 c0 -8 2 -15 4 -15 2 0 6 7 10 15 3 8 1 15 -4 15 -6 0 -10
-7 -10 -15z"/>
<path d="M2616 2795 c-3 -8 -1 -15 4 -15 6 0 10 7 10 15 0 8 -2 15 -4 15 -2 0
-6 -7 -10 -15z"/>
<path d="M2050 2792 c0 -5 7 -9 15 -9 8 0 15 4 15 9 0 4 -7 8 -15 8 -8 0 -15
-4 -15 -8z"/>
<path d="M1866 2727 c3 -10 9 -15 12 -12 3 3 0 11 -7 18 -10 9 -11 8 -5 -6z"/>
<path d="M1910 2725 c0 -8 2 -15 4 -15 2 0 6 7 10 15 3 8 1 15 -4 15 -6 0 -10
-7 -10 -15z"/>
<path d="M1958 2733 c-22 -5 -24 -20 -3 -20 8 0 15 5 15 11 0 6 5 4 10 -4 8
-13 10 -12 10 3 0 17 -2 18 -32 10z"/>
<path d="M2124 2115 c4 -24 16 -30 16 -7 0 12 -4 22 -9 22 -5 0 -8 -7 -7 -15z"/>
<path d="M2210 2105 c0 -14 2 -25 4 -25 2 0 6 11 8 25 3 14 1 25 -3 25 -5 0
-9 -11 -9 -25z"/>
<path d="M2482 2105 c0 -16 2 -22 5 -12 2 9 2 23 0 30 -3 6 -5 -1 -5 -18z"/>
<path d="M2305 2109 c-4 -6 -5 -12 -2 -15 2 -3 7 2 10 11 7 17 1 20 -8 4z"/>
<path d="M2381 2103 c-1 -14 5 -23 14 -23 9 0 15 9 14 23 0 21 -1 21 -8 2 l-8
-20 -5 20 c-5 18 -6 18 -7 -2z"/>
<path d="M2652 2100 c0 -14 2 -19 5 -12 2 6 2 18 0 25 -3 6 -5 1 -5 -13z"/>
<path d="M1940 2102 c0 -5 7 -9 15 -9 8 0 15 4 15 9 0 4 -7 8 -15 8 -8 0 -15
-4 -15 -8z"/>
<path d="M2572 2094 c-7 -8 -8 -14 -3 -14 10 0 25 19 20 25 -2 1 -10 -3 -17
-11z"/>
<path d="M1856 2087 c3 -10 9 -15 12 -12 3 3 0 11 -7 18 -10 9 -11 8 -5 -6z"/>
<path d="M1990 2070 c0 -5 -8 -10 -17 -11 -14 0 -15 -2 -3 -6 8 -3 18 -11 22
-17 4 -6 8 1 8 17 0 15 -2 27 -5 27 -3 0 -5 -4 -5 -10z"/>
<path d="M2080 2072 c0 -6 -10 -13 -22 -15 -13 -2 -6 -5 17 -5 22 -1 36 2 30
6 -5 4 -13 11 -17 16 -5 5 -8 5 -8 -2z"/>
<path d="M1885 2060 c-18 -8 -17 -9 8 -9 16 -1 26 3 22 9 -3 6 -7 10 -8 9 -1
0 -11 -4 -22 -9z"/>
<path d="M2163 2053 c9 -2 23 -2 30 0 6 3 -1 5 -18 5 -16 0 -22 -2 -12 -5z"/>
<path d="M2248 2053 c6 -2 18 -2 25 0 6 3 1 5 -13 5 -14 0 -19 -2 -12 -5z"/>
<path d="M2328 2053 c6 -2 18 -2 25 0 6 3 1 5 -13 5 -14 0 -19 -2 -12 -5z"/>
<path d="M2438 2053 c7 -3 16 -2 19 1 4 3 -2 6 -13 5 -11 0 -14 -3 -6 -6z"/>
<path d="M1942 2018 c1 -16 6 -28 10 -28 11 0 10 22 -2 40 -8 11 -9 9 -8 -12z"/>
<path d="M2026 2033 c-13 -14 -6 -43 12 -42 10 0 12 3 5 6 -7 2 -13 12 -13 21
0 15 2 15 10 2 6 -9 10 -10 10 -3 0 15 -15 25 -24 16z"/>
<path d="M1856 2021 c-4 -7 -5 -15 -2 -18 9 -9 19 4 14 18 -4 11 -6 11 -12 0z"/>
<path d="M2202 2010 c0 -14 2 -19 5 -12 2 6 2 18 0 25 -3 6 -5 1 -5 -13z"/>
<path d="M2291 2006 c0 -13 3 -16 6 -7 5 11 7 11 14 0 7 -11 9 -9 9 7 0 12 -6
21 -15 21 -9 0 -15 -9 -14 -21z"/>
<path d="M2470 2010 c0 -19 3 -21 12 -12 9 9 9 15 0 24 -9 9 -12 7 -12 -12z"/>
<path d="M1880 1966 c0 -2 7 -6 15 -10 8 -3 15 -1 15 4 0 6 -7 10 -15 10 -8 0
-15 -2 -15 -4z"/>
<path d="M1968 1963 c6 -2 18 -2 25 0 6 3 1 5 -13 5 -14 0 -19 -2 -12 -5z"/>
<path d="M2018 1963 c7 -3 16 -2 19 1 4 3 -2 6 -13 5 -11 0 -14 -3 -6 -6z"/>
<path d="M2078 1963 c7 -3 16 -2 19 1 4 3 -2 6 -13 5 -11 0 -14 -3 -6 -6z"/>
<path d="M2430 1960 c0 -5 5 -10 10 -10 6 0 10 5 10 10 0 6 -4 10 -10 10 -5 0
-10 -4 -10 -10z"/>
<path d="M2034 1929 c-3 -6 -2 -15 3 -20 5 -5 9 -1 9 11 0 23 -2 24 -12 9z"/>
<path d="M2112 1920 c0 -14 2 -19 5 -12 2 6 2 18 0 25 -3 6 -5 1 -5 -13z"/>
<path d="M2216 1925 c-9 -26 -7 -32 5 -12 6 10 9 21 6 23 -2 3 -7 -2 -11 -11z"/>
<path d="M2382 1920 c0 -14 2 -19 5 -12 2 6 2 18 0 25 -3 6 -5 1 -5 -13z"/>
<path d="M2402 1920 c0 -14 2 -19 5 -12 2 6 2 18 0 25 -3 6 -5 1 -5 -13z"/>
<path d="M2470 1921 c0 -20 2 -21 15 -11 8 7 15 18 14 24 0 6 -3 5 -6 -3 -5
-11 -7 -11 -14 0 -6 10 -9 7 -9 -10z"/>
<path d="M1851 1824 c0 -11 3 -14 6 -6 3 7 2 16 -1 19 -3 4 -6 -2 -5 -13z"/>
<path d="M2470 1820 c0 -5 5 -10 10 -10 6 0 10 5 10 10 0 6 -4 10 -10 10 -5 0
-10 -4 -10 -10z"/>
<path d="M1466 3238 c3 -4 9 -8 15 -8 5 0 9 4 9 8 0 5 -7 9 -15 9 -8 0 -12 -4
-9 -9z"/>
<path d="M3931 2684 c0 -11 3 -14 6 -6 3 7 2 16 -1 19 -3 4 -6 -2 -5 -13z"/>
<path d="M4286 2501 c-3 -5 1 -14 8 -20 10 -9 16 -9 21 -1 4 6 1 9 -7 8 -7 -2
-12 3 -10 10 2 14 -4 16 -12 3z"/>
</g>
</svg>
