<svg width="325" height="473" viewBox="0 0 325 473" fill="none" xmlns="http://www.w3.org/2000/svg">
<path d="M57.8522 229.496C57.8522 229.496 72.4232 191.499 85.3522 168.996C99.7701 143.901 109.401 130.427 128.852 108.996C141.383 95.1905 148.895 87.7687 163.352 75.9961C178.052 64.0263 186.882 57.8819 203.352 48.4961C206.726 46.5736 209.612 44.8545 212.352 43.2782C218.239 39.8916 223.448 37.1644 231.352 34.4961C232.382 34.1485 233.367 33.8107 234.318 33.4847L234.319 33.484L234.323 33.4828C242.451 30.6958 248.065 28.7705 257.352 28.9961C264.092 29.1598 272.352 30.9961 274.352 31.9961C276.352 32.9961 285.485 35.3039 291.852 38.9961C298.579 42.8967 302.376 45.5208 307.352 51.4961C311.94 57.0048 313.674 60.846 316.352 67.4961C318.918 73.8665 320.051 77.6754 320.852 84.4961C321.513 90.1201 320.852 93.3335 320.852 98.9961V113.496C320.852 113.496 322.816 105.638 323.352 100.496C324.001 94.2814 323.96 90.7149 323.352 84.4961C322.693 77.75 321.982 73.9309 319.852 67.4961C317.684 60.9448 316.225 57.2075 312.352 51.4961C307.703 44.6396 303.953 41.502 297.352 36.496C291.081 31.7397 288.352 29.9961 279.852 26.4961C271.352 22.9961 193.852 2.74616 178.852 1.49606C163.852 0.24596 152.547 1.52325 135.852 3.49606C122.462 5.07835 114.771 5.6359 101.852 9.49606C91.7772 12.5065 86.2154 14.7106 76.8522 19.4961C64.7 25.707 58.002 29.8728 47.8522 38.9961C36.2856 49.3929 30.8422 56.6529 22.8522 69.9961C12.062 88.0156 8.39373 99.8854 4.35222 120.496C0.702784 139.107 0.308963 150.093 1.85222 168.996C2.88401 181.634 1.88595 189.555 7.35222 200.996C11.6121 209.912 14.9364 215.081 22.8522 220.996C29.3639 225.862 33.8585 228.021 41.8522 229.496C47.9969 230.63 57.8522 229.496 57.8522 229.496Z" fill="#CF2727"/>
<path fill-rule="evenodd" clip-rule="evenodd" d="M319.852 115.496C319.822 115.496 319.791 115.496 319.758 115.496C319.687 115.496 319.611 115.496 319.528 115.497L319.758 115.496L319.852 115.496Z" fill="#CF2727"/>
<path d="M320.852 98.9961C320.852 93.3335 321.513 90.1201 320.852 84.4961C320.051 77.6754 318.918 73.8665 316.352 67.4961C313.674 60.846 311.94 57.0048 307.352 51.4961C302.376 45.5208 298.579 42.8967 291.852 38.9961C285.485 35.3039 276.352 32.9961 274.352 31.9961C272.352 30.9961 264.092 29.1598 257.352 28.9961C248.065 28.7705 242.451 30.6958 234.323 33.4828L234.319 33.484L234.318 33.4847C233.367 33.8107 232.382 34.1485 231.352 34.4961C223.448 37.1644 218.239 39.8916 212.352 43.2782M320.852 98.9961C320.852 104.659 320.852 113.496 320.852 113.496M320.852 98.9961V113.496M320.852 113.496C320.852 113.496 322.816 105.638 323.352 100.496C324.001 94.2814 323.96 90.7149 323.352 84.4961C322.693 77.75 321.982 73.9309 319.852 67.4961C317.684 60.9448 316.225 57.2075 312.352 51.4961C307.703 44.6396 303.953 41.502 297.352 36.496C291.081 31.7397 288.352 29.9961 279.852 26.4961C271.352 22.9961 193.852 2.74616 178.852 1.49606C163.852 0.24596 152.547 1.52325 135.852 3.49606C122.462 5.07835 114.771 5.6359 101.852 9.49606C91.7772 12.5065 86.2154 14.7106 76.8522 19.4961C64.7 25.707 58.002 29.8728 47.8522 38.9961C36.2856 49.3929 30.8422 56.6529 22.8522 69.9961C12.062 88.0156 8.39373 99.8854 4.35222 120.496C0.702784 139.107 0.308963 150.093 1.85222 168.996C2.88401 181.634 1.88595 189.555 7.35222 200.996C11.6121 209.912 14.9364 215.081 22.8522 220.996C29.3639 225.862 33.8585 228.021 41.8522 229.496C47.9969 230.63 57.8522 229.496 57.8522 229.496C57.8522 229.496 72.4232 191.499 85.3522 168.996C99.7701 143.901 109.401 130.427 128.852 108.996C141.383 95.1905 148.895 87.7687 163.352 75.9961C178.052 64.0263 186.882 57.8819 203.352 48.4961C206.726 46.5736 209.612 44.8545 212.352 43.2782M320.852 113.496C320.852 113.496 320.725 115.496 319.852 115.496M319.852 115.496L319.758 115.496M319.852 115.496C319.822 115.496 319.791 115.496 319.758 115.496M212.352 43.2782C212.352 43.2782 236.371 61.0701 251.352 72.9961C270.11 87.9289 293.352 110.496 298.352 112.496C305.923 115.524 316.506 115.503 319.528 115.497M319.528 115.497L319.758 115.496M319.528 115.497C319.611 115.496 319.687 115.496 319.758 115.496" stroke="black"/>
<path d="M274.352 31.9961C272.352 30.9961 264.092 29.1598 257.352 28.9961C248.065 28.7705 242.451 30.6958 234.323 33.4828L231.352 34.4961C223.448 37.1644 218.239 39.8916 212.352 43.2782C212.352 43.2782 236.371 61.0701 251.352 72.9961C270.11 87.9289 293.352 110.496 298.352 112.496C305.923 115.524 316.506 115.503 319.528 115.497L319.758 115.496L319.852 115.496C320.725 115.496 320.852 113.496 320.852 113.496V98.9961C320.852 93.3335 321.513 90.1201 320.852 84.4961C320.051 77.6754 318.918 73.8665 316.352 67.4961C313.674 60.846 311.94 57.0048 307.352 51.4961C302.376 45.5208 298.579 42.8967 291.852 38.9961C285.485 35.3039 276.352 32.9961 274.352 31.9961Z" fill="#E7E7E7" stroke="black"/>
<path d="M35 227.5L126.5 402M47 230.5L127.5 403M127.5 403L57.5 229.5M127.5 403L67 208.5M127.5 403L82 176M127.5 403L98.5 148M109.5 132.5L129 403L131 107" stroke="black"/>
<path d="M154 84V397.5M154 397.5L184.5 60.5M154 397.5L193.5 54.5M154 397.5L228 36M155.5 394.5L234 34M156 394L251.5 29.5M157 393.5L280.5 34.5M157 393.5L302 47M157 393.5L316.5 66.5M157 393.5L321 86M157 393.5L321 113.5" stroke="black"/>
<path d="M159.5 458C154.101 459.752 145 459 145 459C145 459 142.316 462.057 140 463C136.926 464.252 134.766 462.409 131.5 463C126.344 463.932 123 469.5 119.5 469C116 468.5 117.5 467.5 117.5 466.5C117.5 465.5 120.833 464.926 121 463C121.217 460.509 117.5 459 116 459C114.5 459 115.5 467.5 114.5 468.5C113.5 469.5 104.5 471.5 104.5 471.5C104.5 471.5 102.5 470.5 102.5 469C102.5 467.5 108.5 464.5 110 462.5C111.5 460.5 109.5 446.5 111 444.5C112.5 442.5 124.5 440 125.5 439.5C126.5 439 124 422.5 126.5 423C129 423.5 128.602 423.915 129.5 425C131.492 427.407 128.5 432.5 129.5 433C130.5 433.5 135.377 430.676 135.5 427.5C135.598 424.956 132.984 424.348 132 422C130.845 419.245 131.304 417.377 130.5 414.5C128.947 408.944 124 402 124.5 401C125 400 127.5 400 129.5 400C131.5 400 131.5 414 133.5 414C135.5 414 136.5 413 137.5 413C138.5 413 137 401.5 138 401C139 400.5 139.5 400 141 400.5C142.5 401 140.184 409.035 142 414C142.75 416.05 142.429 418.31 144.5 419C145.81 419.437 146.732 419.047 148 418.5C152.159 416.707 148.505 411.418 149.5 407C150.585 402.181 151.5 395.5 153.5 395C155.5 394.5 159 394.025 160.5 395C162 395.975 161.5 413 161.5 413C161.5 413 161.765 418.858 164 421.5C165.644 423.444 167.653 423.248 169.5 425C175.901 431.07 174.888 439.355 171.5 447.5C170.355 450.252 169.652 451.938 167.5 454C164.978 456.416 162.822 456.922 159.5 458Z" fill="black" stroke="black"/>
</svg>
